<svg xmlns="http://www.w3.org/2000/svg" width="110" height="37" stroke="none" stroke-linecap="round" stroke-linejoin="round" fill="#999999" fill-rule="nonzero"><path d="M51.315 22.341c-2.134 0-3.863-1.768-3.863-3.948s1.73-3.948 3.863-3.948 3.862 1.768 3.862 3.948-1.73 3.948-3.863 3.948zm3.875.5c0 .36.62 1.377 1.38 1.377h.492a.35.35 0 0 0 .347-.347V13.068c-.01-.182-.16-.328-.345-.328h-1.53c-.184 0-.335.146-.345.328h-.002v.878c-.934-1.15-2.405-1.627-3.88-1.627-3.355 0-6.074 2.72-6.074 6.074s2.72 6.074 6.074 6.074c1.476 0 3.084-.573 3.88-1.627zm5.857-1.547c1.017.704 2.127 1.047 3.194 1.047 1.016 0 2.067-.527 2.067-1.444 0-1.224-2.3-1.415-3.728-1.904s-2.678-1.5-2.678-3.136c0-2.504 2.232-3.54 4.314-3.54 1.32 0 2.68.435 3.564 1.06.304.23.12.495.12.495l-.843 1.203c-.095.135-.3.244-.498.106-.568-.375-1.2-.737-2.342-.737-1.414 0-2.036.587-2.036 1.314 0 .872.995 1.147 2.16 1.444 2.03.547 4.246 1.205 4.246 3.695 0 2.206-2.064 3.57-4.345 3.57-1.73 0-3.2-.493-4.435-1.4-.257-.257-.078-.496-.078-.496l.84-1.197c.17-.224.386-.146.48-.08zm18.965 1.547c0 .36.62 1.377 1.38 1.377h.492a.35.35 0 0 0 .347-.347l-.002-10.805c-.01-.182-.16-.328-.345-.328h-1.523c-.184 0-.335.146-.345.328h-.002v.878c-.933-1.15-2.405-1.627-3.88-1.627-3.355 0-6.074 2.72-6.074 6.074s2.72 6.074 6.074 6.074c1.476 0 3.084-.573 3.88-1.627zm-3.875-.5c-2.134 0-3.863-1.768-3.863-3.948s1.73-3.948 3.863-3.948 3.862 1.768 3.862 3.948-1.73 3.948-3.863 3.948zm19.742.872l-.001-5.6c0-3.152-1.988-5.278-5.16-5.278-1.513 0-2.752.875-3.2 1.627v-.01l-.003.01c-.001-.76-.618-1.204-1.38-1.204h-.5a.35.35 0 0 0-.347.347l.002 10.806c.01.182.16.328.345.328h1.523c.023 0 .046-.003.068-.007.01-.002.02-.006.03-.01l.034-.01c.014-.006.026-.013.04-.02l.02-.01a.357.357 0 0 0 .043-.034.314.314 0 0 0 .048-.053c.038-.053.06-.116.065-.184h.002v-6.383c0-1.693 1.372-3.065 3.065-3.065s3.065 1.372 3.065 3.065l.004 6.383c.01.182.16.328.345.328h1.523a.373.373 0 0 0 .068-.007c.01-.002.017-.006.026-.008l.037-.012c.012-.005.024-.012.035-.02l.022-.01c.014-.0098.0274-.0205.04-.032.025-.022.038-.037.05-.053.04-.055.063-.118.067-.186l.002-.001v-.705zm11.882-.37c0 .36.62 1.377 1.378 1.377h.492a.35.35 0 0 0 .347-.347l-.001-10.805c-.01-.182-.16-.328-.345-.328h-1.523c-.185 0-.335.146-.345.328h-.001v.878c-.934-1.15-2.406-1.627-3.882-1.627-3.354 0-6.074 2.72-6.074 6.074s2.72 6.074 6.074 6.074c1.476 0 3.084-.573 3.88-1.627zm-3.875-.5c-2.134 0-3.863-1.768-3.863-3.948s1.73-3.948 3.863-3.948 3.862 1.768 3.862 3.948-1.73 3.948-3.862 3.948zm-72.73-2.868c-4.7797.0022-8.6538 3.8763-8.656 8.656s3.8763 8.6538 8.656 8.656 8.6538-3.8763 8.656-8.656-3.8763-8.6538-8.656-8.656zm-22.5.001C3.8763 19.4782.0022 23.3523 0 28.132s3.8763 8.6538 8.656 8.656 8.6538-3.8763 8.656-8.656-3.8763-8.6538-8.656-8.656zm19.9-10.82c-.0017 4.7797-3.8753 8.6543-8.655 8.657s-8.6543-3.8769-8.656-8.657S15.1213.0022 19.901 0c4.7793.0028 8.6528 3.8767 8.655 8.656z"/></svg>