<svg xmlns="http://www.w3.org/2000/svg" width="99" height="18" stroke="#000" stroke-linecap="round" stroke-linejoin="round" fill="#fff" fill-rule="evenodd"><path d="M.0059 0l8.2984.0255c2.0441.0074 3.7927 1.4707 4.1604 3.4815.4078 2.2404-.7536 4.1507-2.5548 4.6646-.0522.0252-.1004.0576-.1435.0963 1.7078.4913 2.7278 1.6214 3.0148 3.3144.4716 2.7937-1.0672 5.0901-3.9797 5.4183-.6486.059-1.301.0845-1.9525.0757L0 17.09zm3.6672 13.8159c.0451.023.0935.0389.1435.0471l3.4372-.0118c1.1792-.0569 1.8847-.7821 1.9201-1.8542s-.6191-1.8542-1.7687-1.9928c-.739-.0589-1.4809-.0786-2.2208-.0589H3.6839zm-.0236-7.0504h3.0973c.1965.0058.3911-.0059.5847-.0374.7075-.1435 1.2558-.511 1.4444-1.2578a1.768 1.768 0 0 0-.2723-1.5654c-.3332-.4494-.8593-.7147-1.4188-.7153-.5729-.0294-1.1497 0-1.7216 0H3.6731c0 .1248-.0236.2005-.0236.2752l.0098 3.3016zm62.3159 10.6262l-1.2951-.2358c-3.3449-.8029-5.0478-3.682-4.756-6.8618.2358-2.6531 1.588-4.6184 4.1438-5.5028 3.5709-1.2577 7.7137.4403 8.3229 5.1825.0806.6269.0757 1.2646.115 1.9652h-9.225c.2122 1.1792.8028 1.9928 1.8326 2.4291 1.6725.7075 3.2388.3557 4.7108-.5955.0982-.057.167-.1228.2525-.1837a.398.398 0 0 1 .0845 0l1.4415 2.1205-1.3923.8598c-.8805.4324-1.8376.6879-2.8153.7586-.1127.0176-.2238.0446-.3321.0806zm3.3459-7.7186c.0638-1.5329-1.3973-2.7042-3.2486-2.6315-1.5379.0589-2.9067 1.3639-2.7514 2.6315zm9.8951 7.7186l-1.5948-.3272c-2.4713-.6682-4.2548-2.8202-4.4474-5.3731-.2123-2.4291.4913-4.4906 2.4428-6.0206 2.9479-2.3249 8.7651-1.7982 9.9197 3.7006a8.17 8.17 0 0 1 .1553 1.1988c.0295.4265 0 .8579 0 1.3502h-9.1385a2.826 2.826 0 0 0 .789 1.696c1.0121 1.0455 2.2778 1.244 3.6358 1.0023a4.864 4.864 0 0 0 2.3976-1.1025l1.474 2.1598c-.3931.2555-.7331.5306-1.1143.737-.948.5063-1.9905.8111-3.0619.8952-.1255.02-.2498.0469-.3725.0805zm-2.6472-7.7216h5.9941c.0786-1.4867-1.3502-2.6668-3.1425-2.6334-1.5899.0334-2.9676 1.2911-2.8526 2.6334zm-57.9756 7.7216l-1.1791-.2358c-2.4144-.5818-3.8274-2.3859-3.8274-4.8641V4.7402h3.2506v7.189c0 1.018.3065 1.8847 1.2725 2.3249 1.0455.4717 2.1205.4717 3.0854-.2358.7075-.5041.907-1.2774.909-2.1058q0-3.341 0-6.6967v-.4913h3.2201v7.4907c0 2.827-1.7668 4.7854-4.5958 5.0802-.1376.0137-.2751.0589-.4147.0983zm30.731-.3538V.0118h11.8369v2.7445c.0235.3636-.1131.4324-.4471.4284-2.3368-.0118-4.6735 0-7.0102 0h-.737v3.5808h5.7268c.3577 0 .4403.0982.4324.4451v2.7376h-6.1759v7.0907zm37.2056-.0068V5.1569c0-.4992 0-.5041.5178-.4992l5.3554.0786c2.5352.1965 4.5152 1.3384 5.4556 3.8372.9532 2.5421.2358 5.4418-1.7127 7.0288a6.436 6.436 0 0 1-3.9316 1.4484l-5.5194.0236a1.062 1.062 0 0 1-.1671-.0423zm3.1051-2.6139h1.7923c2.1029 0 3.4275-1.1791 3.6633-3.279.17-1.5005-.6426-2.9971-1.9387-3.5336-1.1379-.4716-2.3289-.2191-3.5179-.2948zM31.8679 7.5113h-5.5273V4.7265h9.9737v1.5722c.0327.453-.1193.9-.4215 1.2391l-4.9329 6.226-.3085.4078h5.7121v2.8477H26.3209v-2.3318c0-.1317.1376-.2712.2358-.3911q2.5225-3.2182 5.0547-6.4284c.0806-.0983.1376-.1887.2555-.3675zm5.4045.0127V5.0282c0-.0983.0138-.1789.0255-.2948h9.9443V6.962a.687.687 0 0 1-.1936.3272q-2.5745 3.2624-5.147 6.5149l-.2918.4048h5.3553c.2987 0 .4127.0727.3931.3931v2.4428H37.293V14.659c0-.0983.1062-.2024.1769-.2948l4.9348-6.2751.4324-.5582z" stroke="none" fill="#c1c1c1" fill-rule="nonzero"/></svg>