<svg clip-rule="evenodd" fill-rule="evenodd" stroke-linejoin="round" stroke-miterlimit="2" viewBox="0 0 560 400" xmlns="http://www.w3.org/2000/svg">
    <path d="m37 155h486v90h-486z" fill="#F2F4F8" />
    <g fill-rule="nonzero">
        <path d="m101.584 185.069c5.706 0 5.706 7.668 5.706 16.596s-5.985 26.325-20.385 26.325-19.17-7.371-23.823-13.761-11.394-17.181-5.229-22.527c-1.548-9.423 4.059-8.73 4.059-8.73s0-5.202 4.032-7.281c3.933-2.025 7.596 2.079 7.596 2.079s6.39-3.609 10.701.666 9.666 12.915 9.666 12.915 1.98-6.282 7.677-6.282z" fill="#999999" />
        <path d="m102.376 213.374c-3.114 7.254-10.089 12.015-17.982 12.051-6.777 0-12.447-4.851-16.029-8.964-3.852-4.878-7.137-10.188-9.783-15.822-.927-2.637-.999-4.248 0-5.112.999-.873 3.006-.234 4.086 1.107s7.911 10.359 8.118 10.809c.216.459.729.675 1.215.531.432-.36.495-1.008.135-1.449l-11.133-15.831c-.999-1.377-.702-3.303.675-4.311.036-.018.063-.045.09-.063 1.458-.999 3.438-.657 4.482.765l9.441 12.897c.216.441.756.63 1.197.405.018-.009.045-.018.063-.036.45-.315.315-.945 0-1.395l-10.647-16.218c-.999-1.377-.702-3.303.675-4.311.036-.018.063-.045.09-.063 1.449-1.008 3.447-.675 4.482.765l11.493 16.821c.315.423.9.765 1.341.45.45-.315.261-.972 0-1.449-1.449-2.403-6.489-11.025-7.326-12.546s-1.026-3.06 0-3.771 3.294-.342 6.174 2.637c3.51 4.311 6.624 8.91 9.333 13.761.234.405.513.765.846 1.08 1.107 1.08 1.872.873 2.349-.162s1.107-8.334 5.274-8.172c1.503 0 2.637 1.503 3.186 5.274 1.269 6.804.63 13.842-1.845 20.322zm7.299-21.096c-.765-6.435-3.744-9.756-8.334-9.891-3.078-.18-6.021 1.287-7.722 3.852-1.854-3.051-3.951-5.949-6.273-8.649-5.85-6.3-10.548-5.481-13.185-3.636-3.015-2.187-7.083-2.268-10.179-.189-2.43 1.629-3.87 4.374-3.825 7.308-2.673 1.143-4.581 3.546-5.085 6.408-.252 1.215-.252 2.475 0 3.69l-.45.396c-2.637 2.637-3.186 6.273-1.368 11.151 2.898 6.201 6.543 12.033 10.836 17.379 6.3 7.227 13.185 10.89 20.223 10.89 10.161-.009 19.323-6.102 23.256-15.48 2.871-7.416 3.618-15.489 2.16-23.31" />
        <path d="m96.544 212.186c-1.593-3.303-2.484-6.885-2.637-10.548 0-.774-.63-1.395-1.395-1.395-.756 0-1.368.612-1.368 1.368v.027c.144 4.113 1.143 8.154 2.925 11.862.369.675 1.215.927 1.899.558.666-.36.927-1.188.558-1.854 0-.009-.009-.009-.009-.018m-8.379-11.34c.441.621.297 1.476-.324 1.908-.009.009-.009.009-.018.009-3.231 2.592-5.922 5.787-7.911 9.414-.396.657-1.242.873-1.899.477s-.873-1.242-.477-1.899c2.178-3.96 5.139-7.434 8.703-10.233.63-.45 1.494-.306 1.953.315" fill="#999999" />
        <path d="m66.727 232.643c-5.85-3.33-10.485-8.46-13.185-14.634-.189-.747-.945-1.206-1.692-1.026-.747.189-1.206.945-1.026 1.692.018.081.045.153.081.225 2.961 6.885 8.118 12.582 14.661 16.218.666.36 1.494.117 1.863-.54.36-.666.117-1.494-.54-1.863-.054-.018-.108-.045-.162-.072m31.959-54.999c-.702.315-1.521.009-1.845-.684-2.151-3.438-5.301-6.138-9.018-7.749-.72-.261-1.089-1.044-.846-1.764.234-.738 1.017-1.143 1.755-.918.036.009.081.027.117.045 4.392 1.863 8.082 5.058 10.548 9.153.315.702.009 1.521-.684 1.845" fill="#999999" />
        <g fill="#999999">
            <path d="m489.385 209.27-7.11-21.42h-13.05l13.95 34.92c-.81 1.08-1.71 1.44-2.97 1.44-1.35 0-3.42-.72-5.49-1.89l-3.78 8.73c3.24 1.89 6.93 3.06 11.34 3.06 7.11 0 10.44-3.24 13.5-11.52l13.05-34.65h-12.78z" />
            <path d="m458.695 224.12c3.51 0 6.48-.81 8.64-2.07v-9.72c-1.53.72-3.06 1.17-4.77 1.17-2.34 0-3.42-1.08-3.42-3.51v-12.15h8.28v-9.99h-8.28v-9h-12.33v9h-4.23v9.99h4.23v14.49c0 8.55 4.41 11.79 11.88 11.79z" />
            <path d="m415.765 223.4h12.51v-11.07c0-8.19 3.69-11.88 10.17-11.88h1.08v-13.14c-5.94-.27-9.18 2.88-11.25 7.74v-7.2h-12.51z" />
            <path d="m406.54 191.63c-2.79-2.79-7.2-4.32-13.5-4.32-6.12 0-10.35 1.08-14.4 2.79l2.52 8.73c3.24-1.17 6.12-1.98 9.9-1.98 4.77 0 7.11 2.07 7.11 5.85v.63c-2.07-.81-5.22-1.35-8.55-1.35-8.37 0-13.95 3.78-13.95 11.16v.09c-.09 7.02 5.04 10.98 11.79 10.98 4.68 0 8.01-1.8 10.53-4.5v3.69h12.33v-20.43c0-4.95-1.08-8.64-3.78-11.34zm-8.37 18.9c0 3.51-2.61 5.85-6.3 5.85-2.52 0-4.41-1.44-4.41-3.87v-.09c0-2.7 2.07-4.41 5.76-4.41 1.8 0 3.6.36 4.95.9z" />
            <path d="m356.275 187.13c-5.31 0-8.37 2.52-10.8 5.49v-4.77h-12.51v46.08h12.6v-14.85c2.34 2.7 5.49 5.13 10.8 5.13 8.37 0 15.66-7.02 15.66-18.63v-.09c0-11.34-7.29-18.36-15.75-18.36zm3.6 18.54c0 4.77-3.33 8.1-7.29 8.1-4.05 0-7.29-3.33-7.29-8.1v-.09c0-4.77 3.24-8.1 7.29-8.1s7.29 3.33 7.29 8.1z" />
            <path d="m327.925 206.48c0-10.44-5.67-19.44-17.91-19.44-10.53 0-17.91 8.19-17.91 18.63v.09c0 10.98 7.92 18.45 19.08 18.45 7.02 0 11.97-2.88 15.39-7.2l-6.93-5.76c-2.52 2.52-4.86 3.6-7.92 3.6-3.87 0-6.66-1.98-7.65-5.85h23.76c.09-.81.09-1.8.09-2.52zm-24.03-3.78c.63-3.96 2.88-6.48 6.21-6.48 3.42 0 5.76 2.52 6.21 6.48z" />
            <path d="m273.835 224.21c8.64 0 14.49-4.05 14.49-11.88v-.09c0-6.93-5.58-9.36-12.6-11.34-3.69-1.08-5.76-1.8-5.76-3.15v-.09c0-1.08.99-1.8 2.88-1.8 2.79 0 6.84 1.26 10.53 3.33l4.23-7.92c-4.05-2.61-9.45-4.14-14.67-4.14-8.19 0-14.22 4.23-14.22 11.79v.09c0 7.11 5.58 9.45 12.6 11.34 3.78 1.08 5.76 1.62 5.76 3.06v.09c0 1.26-1.08 1.89-3.24 1.89-3.69 0-8.1-1.35-12.15-4.05l-4.68 7.47c4.95 3.6 10.89 5.4 16.83 5.4z" />
            <path d="m230.185 224.21c5.04 0 8.37-2.79 10.62-5.76v4.95h12.42v-35.55h-12.42v19.26c0 3.87-2.25 5.94-5.22 5.94-3.06 0-5.04-2.07-5.04-5.94v-19.26h-12.51v23.22c0 8.1 4.59 13.14 12.15 13.14z" />
            <path d="m193.915 224.21c11.43 0 19.71-8.46 19.71-18.63v-.09c0-10.08-8.19-18.45-19.62-18.45-11.34 0-19.62 8.46-19.62 18.63v.09c0 10.17 8.28 18.45 19.53 18.45zm.18-10.53c-4.41 0-7.56-3.69-7.56-8.01v-.09c0-4.32 2.88-7.92 7.38-7.92 4.41 0 7.65 3.69 7.65 8.1v.09c0 4.23-2.97 7.83-7.47 7.83z" />
            <path d="m126.775 223.4h12.78v-17.46h16.38v17.46h12.69v-45.99h-12.78v17.19h-16.38v-17.19h-12.69z" />
        </g>
    </g>
</svg>