<svg xmlns="http://www.w3.org/2000/svg" height="800" width="1200" viewBox="-123 -140.003 1066 840.018"><path d="M120 330.002v-320H0v300c0 82.44 54.43 119.99 105 119.99 15.07 0 30.17-3.45 43.71-9.77 2-.93 5.2-2.93 5.2-2.93s-3.04-3.2-4.28-4.61c-19.2-21.84-29.63-50.26-29.63-82.68zm700-80v-120h-42.82c-17.89-94.32-117.02-156.26-216.64-119.03C505.06 31.712 460 98.032 460 157.262v272.62l5 .01h.21c30.9-1.33 59.78-14.4 81.3-36.81 21.6-22.48 33.49-51.99 33.49-83.08h50v-120h-50v-32.98c0-12.82 6.77-24.81 17.98-31.04 30.73-17.06 62.02 4.89 62.02 34.02v110c0 43.53 16.42 83.92 46.25 113.75 28.53 28.53 67.1 44.93 108.6 46.17H820v-119.91s0-.01-.01-.01c-22.43-.06-39.99-18.13-39.99-40v-20zm-510-120v160c0 11.05-8.95 20-20 20s-20-8.95-20-20v-160H150v200c0 55.14 44.86 100 100 100 23.83 0 46.92-8.53 65-24-1.87 14.76-10.02 27.05-23.58 35.54-12.71 7.96-29.26 12.16-47.87 12.17-19.16 0-38.66-4.51-56.38-13.04 0 0-3.17-1.51-7.17-3.79v106.59c26.71 10.82 55.96 16.54 84.31 16.54 44.83 0 85.74-14.02 115.18-39.47 33.05-28.57 50.51-70.25 50.51-120.54v-270z" fill="#999999"/></svg>