<svg xmlns="http://www.w3.org/2000/svg" xmlns:xlink="http://www.w3.org/1999/xlink" height="800" width="1200" viewBox="-40.635 -15.25 352.17 91.5"><path d="M18.5 47.8v-5.3h5.3V26.6h-5.3v-5.4h10.6v21.2h5.4v5.3h-16zM53 61V26.5h-5.3v29.2H5.3V13.3h29.2V8H0v53zm0-39.8v-8h8V8h-8V0h-5.3v8h-8v5.3h8v8H53z" fill="#999999"/><g transform="translate(-16.2 -8)"><defs><path id="a" d="M0 0h303.3v85H0z"/></defs><clipPath id="b"><use height="100%" width="100%" xlink:href="#a" overflow="visible"/></clipPath><path clip-path="url(#b)" d="M125.4 38.5c.4 1.2.6 2.5.6 4s-.2 2.8-.6 4c-.4 1.2-1 2.2-1.7 3-.7.8-1.6 1.4-2.7 1.9-1.1.4-2.2.7-3.6.7-1.3 0-2.5-.2-3.6-.7-1.1-.4-2-1.1-2.7-1.9-.7-.8-1.3-1.8-1.7-3-.4-1.2-.6-2.5-.6-4s.2-2.8.6-4c.4-1.2 1-2.2 1.7-3 .7-.8 1.6-1.5 2.7-1.9 1.1-.4 2.3-.7 3.6-.7 1.3 0 2.5.2 3.6.7 1.1.4 2 1.1 2.7 1.9.7.8 1.3 1.8 1.7 3m68.3-6.7h-4.4V43h4.4c1.1 0 2-.1 2.8-.4.8-.3 1.5-.7 2-1.2s1-1.1 1.2-1.8c.3-.7.4-1.5.4-2.3 0-1.7-.5-3.1-1.6-4.1-1-.9-2.6-1.4-4.8-1.4M287.1 69H87.7V16h199.4zM131.2 42.5c0-2-.3-3.8-1-5.5-.7-1.7-1.6-3.2-2.8-4.4-1.2-1.2-2.6-2.2-4.3-2.9-1.7-.7-3.6-1.1-5.6-1.1-2 0-3.9.4-5.6 1-1.7.7-3.1 1.7-4.4 2.9-1.2 1.2-2.1 2.7-2.8 4.4-.7 1.7-1 3.5-1 5.5s.3 3.8 1 5.5c.7 1.7 1.6 3.2 2.8 4.4 1.2 1.2 2.7 2.2 4.4 2.9 1.7.7 3.6 1 5.6 1 2 0 3.9-.3 5.6-1 1.7-.7 3.1-1.7 4.3-2.9 1.2-1.2 2.1-2.7 2.8-4.4.6-1.6 1-3.4 1-5.4M158 28.9h-4.4v17.7c0 .4.1.8.1 1.3l-14.2-18.1c-.1-.2-.3-.3-.4-.4-.1-.1-.2-.2-.3-.2-.1-.1-.2-.1-.4-.1h-3.2v27.1h4.4V38.3c0-.4-.1-.8-.1-1.2l14.2 18.1c.2.3.5.6.8.7.3.1.6.2 1 .2h2.6V28.9zm22.6 0h-17.1V56h17.1v-4h-12v-7.7h9.5v-3.9h-9.5V33h12zm23.3 8.4c0-1.3-.2-2.4-.6-3.5-.4-1-1-1.9-1.9-2.7-.8-.7-1.9-1.3-3.2-1.7-1.3-.4-2.8-.6-4.5-.6h-8V56h3.7V45.9h4.4c1.6 0 3.1-.2 4.3-.6 1.3-.4 2.3-1 3.2-1.8.9-.8 1.5-1.7 1.9-2.7.4-1.1.7-2.2.7-3.5M224 53h-11.8V28.9h-3.7v27.2H224zm25.4-24.1h-3.7v16.5c0 1.1-.2 2.2-.5 3.1-.3.9-.8 1.8-1.4 2.5-.6.7-1.4 1.2-2.2 1.6-.9.4-1.9.6-3 .6s-2.1-.2-3-.6c-.9-.4-1.7-.9-2.3-1.6-.6-.7-1.1-1.5-1.4-2.4-.3-.9-.5-2-.5-3.1V28.9h-3.7v16.5c0 1.6.2 3 .7 4.4.5 1.3 1.2 2.5 2.2 3.5.9 1 2.1 1.8 3.4 2.3 1.3.6 2.8.8 4.5.8 1.7 0 3.2-.3 4.5-.8 1.3-.6 2.5-1.3 3.4-2.3.9-1 1.6-2.1 2.1-3.5.5-1.3.7-2.8.7-4.4V28.9zm21.8 18.9c0-1.1-.2-2.1-.6-2.8-.4-.8-.9-1.4-1.5-2-.6-.5-1.3-1-2.1-1.3-.8-.4-1.6-.7-2.4-.9-.8-.3-1.6-.5-2.4-.8-.8-.3-1.5-.6-2.1-.9-.6-.4-1.1-.8-1.5-1.3-.4-.5-.6-1.1-.6-1.9 0-.6.1-1.1.3-1.7.2-.5.5-1 1-1.3.4-.4 1-.7 1.6-.9.6-.2 1.4-.3 2.2-.3.9 0 1.6.1 2.2.3.6.2 1.1.5 1.6.7.4.3.8.5 1.1.7.3.2.5.3.7.3.2 0 .4 0 .5-.1.1-.1.3-.2.4-.4l.9-1.7c-.9-.9-2-1.6-3.3-2.1-1.2-.5-2.6-.7-4.2-.7-1.4 0-2.6.2-3.6.6-1 .4-1.9 1-2.6 1.7-.7.7-1.3 1.5-1.6 2.4-.4.9-.6 1.8-.6 2.8 0 1.2.2 2.2.6 3 .4.8.9 1.5 1.5 2s1.3 1 2.1 1.3l2.4.9c.8.3 1.6.5 2.4.8.8.2 1.5.5 2.1.9.6.4 1.1.8 1.5 1.3.4.5.6 1.2.6 2 0 .7-.1 1.4-.4 2-.3.6-.6 1.1-1.1 1.6-.5.4-1.1.8-1.7 1-.7.2-1.5.4-2.3.4-1.1 0-1.9-.1-2.7-.4-.7-.3-1.3-.6-1.9-.9-.5-.3-.9-.7-1.3-.9-.3-.3-.6-.4-.9-.4-.2 0-.3 0-.5.1-.1.1-.3.2-.4.3l-1.1 1.7c1 1.1 2.3 2 3.7 2.6 1.5.6 3 1 4.8 1 1.4 0 2.7-.2 3.9-.7 1.1-.4 2.1-1.1 2.9-1.8.8-.8 1.4-1.7 1.8-2.7.4-1.2.6-2.3.6-3.5" fill="#999999"/></g></svg>